<svg width="45" height="46" viewBox="0 0 45 46" fill="none" xmlns="http://www.w3.org/2000/svg">
<path d="M22.5098 11.3205C16.1214 11.3205 10.9685 16.5307 10.9685 22.99C10.9685 29.4494 16.1214 34.6596 22.5098 34.6596C28.8982 34.6596 34.0511 29.4494 34.0511 22.99C34.0511 16.5307 28.8982 11.3205 22.5098 11.3205ZM22.5098 30.5768C18.3814 30.5768 15.0064 27.1744 15.0064 22.99C15.0064 18.8057 18.3714 15.4033 22.5098 15.4033C26.6482 15.4033 30.0131 18.8057 30.0131 22.99C30.0131 27.1744 26.6381 30.5768 22.5098 30.5768ZM37.2151 10.8432C37.2151 12.3564 36.0098 13.565 34.5232 13.565C33.0265 13.565 31.8312 12.3463 31.8312 10.8432C31.8312 9.34004 33.0366 8.12129 34.5232 8.12129C36.0098 8.12129 37.2151 9.34004 37.2151 10.8432ZM44.8591 13.6057C44.6883 9.95957 43.8647 6.72988 41.2229 4.06895C38.5912 1.40801 35.397 0.575195 31.791 0.392383C28.0745 0.179102 16.935 0.179102 13.2185 0.392383C9.62249 0.565039 6.42829 1.39785 3.78655 4.05879C1.14481 6.71973 0.331194 9.94941 0.150391 13.5955C-0.0605469 17.3533 -0.0605469 28.6166 0.150391 32.3744C0.32115 36.0205 1.14481 39.2502 3.78655 41.9111C6.42829 44.5721 9.61244 45.4049 13.2185 45.5877C16.935 45.801 28.0745 45.801 31.791 45.5877C35.397 45.415 38.5912 44.5822 41.2229 41.9111C43.8546 39.2502 44.6783 36.0205 44.8591 32.3744C45.07 28.6166 45.07 17.3635 44.8591 13.6057ZM40.0578 36.4064C39.2743 38.3971 37.7575 39.9307 35.7787 40.733C32.8156 41.9213 25.7843 41.6471 22.5098 41.6471C19.2352 41.6471 12.1939 41.9111 9.24079 40.733C7.27204 39.9408 5.7553 38.4072 4.96177 36.4064C3.78655 33.4104 4.05776 26.301 4.05776 22.99C4.05776 19.6791 3.7966 12.5596 4.96177 9.57363C5.74526 7.58301 7.262 6.04941 9.24079 5.24707C12.204 4.05879 19.2352 4.33301 22.5098 4.33301C25.7843 4.33301 32.8256 4.06894 35.7787 5.24707C37.7475 6.03926 39.2642 7.57285 40.0578 9.57363C41.233 12.5697 40.9618 19.6791 40.9618 22.99C40.9618 26.301 41.233 33.4205 40.0578 36.4064Z" fill="black"/>
</svg>
