<?xml version="1.0" encoding="UTF-8"?>
<svg id="Livello_2" data-name="Livello 2" xmlns="http://www.w3.org/2000/svg" viewBox="0 0 371.1 75.3">
  <defs>
    <style>
      .cls-1 {
        fill: #2d2d2d;
      }
    </style>
  </defs>
  <g id="Livello_1-2" data-name="Livello 1">
    <g>
      <g>
        <path class="cls-1" d="M14.07,73.89H0V22.17H14.07v8.45c2.46-5.75,9.27-9.85,16.89-9.85,6.92,0,11.73,2.11,14.54,6.22,2.93,4.11,4.34,8.91,4.34,14.66v32.26h-14.08v-29.44c0-7.98-3.17-12.55-10.09-12.55s-11.61,5.75-11.61,14.31v27.68Z"/>
        <path class="cls-1" d="M110.37,57c-2.7,11.38-11.73,18.3-24.87,18.3-7.86,0-14.43-2.35-19.7-7.15-5.16-4.81-7.74-11.26-7.74-19.35s2.58-14.78,7.74-20.06c5.16-5.28,11.61-7.98,19.35-7.98,8.33,0,14.66,2.58,19,7.62,4.34,5.04,6.57,11.14,6.57,18.18v5.04h-38.82c.47,7.62,6.45,13.02,14.07,13.02,6.92,0,11.02-3.05,13.02-8.8l11.38,1.17Zm-13.37-14.19c-.47-5.98-4.1-11.73-11.96-11.73s-11.61,5.28-12.9,11.73h24.86Z"/>
        <path class="cls-1" d="M147.67,46.8l21.11,27.09h-15.95l-13.14-17.24-13.14,17.24h-14.78l20.76-26.51-19.12-25.22h15.83l11.26,15.25"/>
        <path class="cls-1" d="M189.19,73.89h-14.07V0h14.07V30.61c2.46-5.75,9.27-9.85,16.89-9.85,6.92,0,11.73,2.11,14.54,6.22,2.93,4.11,4.34,8.91,4.34,14.66v32.26h-14.08v-29.44c0-7.98-3.17-12.55-10.09-12.55s-11.61,5.75-11.61,14.31v27.68Z"/>
        <path class="cls-1" d="M279.97,67.68c-5.04,5.04-11.61,7.62-19.59,7.62s-14.43-2.58-19.59-7.62c-5.05-5.04-7.62-11.61-7.62-19.59s2.58-14.54,7.62-19.59c5.16-5.16,11.73-7.74,19.59-7.74s14.54,2.58,19.59,7.74c5.16,5.04,7.74,11.61,7.74,19.59s-2.58,14.55-7.74,19.59Zm-19.59-3.05c8.56,0,13.14-6.8,13.14-16.54s-4.57-16.65-13.14-16.65-13.02,6.8-13.02,16.65,4.57,16.54,13.02,16.54Z"/>
        <path class="cls-1" d="M340.37,67.68c-5.04,5.04-11.61,7.62-19.59,7.62s-14.43-2.58-19.59-7.62c-5.05-5.04-7.62-11.61-7.62-19.59s2.58-14.54,7.62-19.59c5.16-5.16,11.73-7.74,19.59-7.74s14.54,2.58,19.59,7.74c5.16,5.04,7.74,11.61,7.74,19.59s-2.58,14.55-7.74,19.59Zm-19.59-3.05c8.56,0,13.14-6.8,13.14-16.54s-4.57-16.65-13.14-16.65-13.02,6.8-13.02,16.65,4.57,16.54,13.02,16.54Z"/>
        <path class="cls-1" d="M371.1,0V73.89h-14.07V0h14.07Z"/>
      </g>
      <path class="cls-1" d="M155.92,22.17h6.58v6.58c0,4.93-4,8.93-8.93,8.93h-6.58v-6.58c0-4.93,4-8.93,8.93-8.93Z"/>
    </g>
  </g>
</svg>