<svg width="38" height="42" viewBox="0 0 38 42" fill="none" xmlns="http://www.w3.org/2000/svg">
<path d="M19.9184 0C22.1496 0 24.5121 0 26.7434 0C26.8746 2.625 27.7934 5.38125 29.7621 7.35C31.7309 9.31875 34.4871 10.2375 37.2434 10.5V17.5875C34.7496 17.4562 32.1246 16.9312 29.8934 15.8813C28.8434 15.4875 27.9246 14.8312 27.0059 14.3062C27.0059 19.425 27.0059 24.5438 27.0059 29.6625C26.8746 32.1562 26.0871 34.5187 24.6434 36.6187C22.4121 40.0312 18.3434 42.1313 14.2746 42.2625C11.7809 42.3937 9.28711 41.7375 7.18711 40.425C3.64336 38.0625 1.14961 34.2562 0.755859 30.1875C0.755859 29.2687 0.755859 28.4813 0.755859 27.5625C1.01836 24.2812 2.72461 21 5.21836 18.9C8.10586 16.4062 12.1746 15.225 15.9809 15.8813C15.9809 18.5063 15.8496 21 15.8496 23.625C14.1434 23.1 12.0434 23.2313 10.5996 24.2812C9.54961 24.9375 8.63086 26.1187 8.23711 27.3C7.84336 28.2187 7.97461 29.1375 7.97461 30.0562C8.36836 32.9437 11.1246 35.3063 14.1434 35.0438C16.1121 35.0438 17.9496 33.8625 18.9996 32.2875C19.3934 31.7625 19.6559 31.1063 19.6559 30.45C19.7871 27.3 19.7871 24.15 19.7871 21.1313C19.9184 14.0438 19.9184 7.0875 19.9184 0Z" fill="black"/>
</svg>
